PathFileType	4	(X/Y/Z)	../Python\running\Running08\task.trc
DataRate	CameraRate	NumFrames	NumMarkers	Units	OrigDataRate	OrigDataStartFrame	OrigNumFrames
200.000000	200.000000	4	30	mm	200.000000	178	204
Frame#	Time	C7			RBAK			CLAV			STRN			RASI			RPSI			LASI			PE01			RTH2			RTH3			RTB2			RD5M			RTOE			LTH3			LTB2			LTB3			LHEE			LTOE			LD5M			RTH1			RHEE			LPSI			PE02			RTB3			RTB1			PE03			T10			LTH2			LTH1			LTB1			
		X1	Y1	Z1	X2	Y2	Z2	X3	Y3	Z3	X4	Y4	Z4	X5	Y5	Z5	X6	Y6	Z6	X7	Y7	Z7	X8	Y8	Z8	X9	Y9	Z9	X10	Y10	Z10	X11	Y11	Z11	X12	Y12	Z12	X13	Y13	Z13	X14	Y14	Z14	X15	Y15	Z15	X16	Y16	Z16	X17	Y17	Z17	X18	Y18	Z18	X19	Y19	Z19	X20	Y20	Z20	X21	Y21	Z21	X22	Y22	Z22	X23	Y23	Z23	X24	Y24	Z24	X25	Y25	Z25	X26	Y26	Z26	X27	Y27	Z27	X28	Y28	Z28	X29	Y29	Z29	X30	Y30	Z30	

179	0.89	1105.62060546875	1336.155151367188	129.9697570800782	1096.198486328125	1274.667602539063	271.0806274414064	1223.314331054688	1245.70947265625	113.0703353881837	1265.977294921875	1060.587158203125	139.9990692138672	1221.520629882813	856.5781250000005	307.6494140625001	1034.184692382813	924.4017944335942	247.0823059082032	1225.8212890625	867.8746948242192	84.62398529052737	1045.49560546875	952.4899291992192	206.2027282714845	1090.260375976563	489.7671508789065	321.2349548339845	1128.400390625	537.8715820312502	328.3255615234376	879.7230834960942	368.8676147460939	273.0839843750001	683.8343505859377	188.828598022461	250.7147521972657	713.041687011719	150.3598022460938	215.1436920166017	1305.95166015625	618.767272949219	45.529354095459	1288.872436523438	220.6436462402345	74.89583587646487	1328.6259765625	251.0262451171876	74.92166137695315	1257.959350585938	50.92886352539065	131.6500854492188	1440.078247070313	34.38691711425783	148.9868774414063	1408.7783203125	15.13182735443116	94.72307586669925	1089.000732421875	568.4578857421877	335.619598388672	685.835876464844	312.3897705078126	148.5132751464844	1030.1279296875	916.5922241210942	162.7911987304688	1016.472473144532	896.0366821289067	223.8077850341798	862.7434692382817	322.7152099609376	263.0016174316407	935.619750976563	346.9799194335939	284.9337463378907	1019.872131347657	899.232543945313	173.3676757812501	1053.54736328125	1059.344848632813	203.1886596679689	1255.6015625	557.4675903320315	55.24409103393558	1256.5498046875	617.0917968750002	38.86067962646486	1292.408081054688	298.4716186523439	60.40726089477542	
180	0.895	1121.603271484375	1332.82177734375	129.1350860595704	1111.109497070313	1271.184448242188	270.2352294921876	1239.425903320313	1241.443237304688	113.1530838012696	1281.5625	1055.618774414063	140.2963104248047	1237.813354492188	853.4697875976567	306.9248657226564	1049.230590820313	918.7046508789067	247.0867156982423	1240.931030273438	864.506713867188	83.3149337768555	1059.986450195313	947.4552612304692	206.5197143554689	1112.947265625	485.0969848632815	322.8978271484376	1150.302856445313	533.8330078125002	329.7926330566407	903.5217285156255	367.0833740234376	274.1370849609376	707.5783691406252	189.9668273925782	252.015594482422	737.0105590820315	151.1902770996094	217.0902099609376	1321.0498046875	615.7341308593752	45.26610565185548	1295.85009765625	218.0504302978517	75.63155364990237	1336.613647460938	247.0491333007814	75.92610168457034	1258.462890625	48.09344863891604	132.5697479248047	1440.759399414063	33.72140502929689	150.6813201904297	1409.785400390625	15.14960193634034	94.74755859375003	1110.433471679688	563.8950805664065	336.7212524414064	708.5947875976565	312.361053466797	148.4189910888672	1045.183349609375	911.7520141601567	162.8626098632813	1031.729858398438	890.495727539063	223.8777923583986	885.9082031250005	321.1472473144532	264.1528930664064	958.930053710938	344.3318176269532	286.5344848632814	1034.8671875	894.047973632813	173.4876403808594	1069.009399414063	1055.581909179688	202.8080291748048	1270.83056640625	554.126159667969	54.30750274658206	1271.606323242188	613.9158935546877	38.51622009277345	1302.328369140625	295.6567993164064	60.83253097534183	
181	0.9	1137.578247070313	1329.44189453125	128.3356475830079	1125.89306640625	1267.557983398438	269.3895568847657	1255.557006835938	1236.995727539063	113.3070678710938	1297.141235351563	1050.468872070313	140.6472930908204	1254.016723632813	850.1732788085942	306.1030578613282	1064.251708984375	912.9172363281255	247.2167968750001	1255.915771484375	861.1024780273442	81.9450607299805	1074.38232421875	942.4385375976567	206.9802703857423	1135.798583984375	480.439147949219	324.4962768554689	1172.339233398438	529.7995605468752	331.1779785156251	927.7307128906255	364.9794006347657	275.360076904297	732.005310058594	190.5891113281251	253.5106811523439	761.6628417968752	151.5773315429688	219.1549377441407	1335.557006835938	612.1150512695315	44.58899307250978	1302.55810546875	215.6353759765626	76.27992248535159	1344.272094726563	243.2313537597657	76.94006347656253	1258.607666015625	45.6337127685547	133.515609741211	1441.071533203125	33.56237411499025	152.1264190673829	1410.3857421875	15.51840114593507	94.81694030761722	1131.988403320313	559.309509277344	337.7608337402345	731.7427978515627	311.8930664062501	148.6003875732422	1060.160400390625	907.0194702148442	163.0161590576172	1046.904052734375	884.9450073242192	224.0216369628907	909.5800170898442	319.2495117187501	265.361297607422	982.7255859375005	341.450653076172	288.131317138672	1049.765014648438	888.940063476563	173.6919097900391	1084.4462890625	1051.731689453125	202.4335021972657	1285.276245117188	550.5423583984377	53.502555847168	1286.075927734375	610.438659667969	38.08245086669923	1311.966552734375	292.9559020996095	61.25550079345706	
182	0.905	1153.55029296875	1326.049926757813	127.5752182006837	1140.558837890625	1263.835571289063	268.542938232422	1271.702270507813	1232.409790039063	113.5362777709962	1312.705810546875	1045.187255859375	141.0534210205079	1270.12353515625	846.7214965820317	305.183074951172	1079.260986328125	907.1229858398442	247.4852447509767	1270.774169921875	857.6970214843755	80.52091217041018	1088.709350585938	937.5087890625005	207.582977294922	1158.83642578125	475.8577880859377	326.0178222656251	1194.516723632813	525.8436279296877	332.4517211914064	952.3466186523442	362.5665893554689	276.7514038085939	757.1174926757815	190.6661529541016	255.1924591064454	787.005249023438	151.5068054199219	221.3128051757814	1349.4482421875	607.9290771484377	43.59092712402345	1309.022583007813	213.4037475585939	76.82761383056643	1351.6181640625	239.5958709716798	77.94227600097659	1258.491455078125	43.58272933959962	134.4452362060547	1441.111083984375	33.75170516967775	153.2985229492188	1410.65966796875	16.09786605834962	94.93176269531253	1153.668701171875	554.751403808594	338.7378540039064	755.250915527344	310.9813232421876	149.0948944091797	1075.060302734375	902.4607543945317	163.2584838867188	1062.005126953125	879.4682006835942	224.2595825195314	933.760864257813	317.030731201172	266.6183471679689	1007.01708984375	338.3572692871095	289.7007751464845	1064.567504882813	883.9780273437505	173.9965057373047	1099.853759765625	1047.8408203125	202.0608062744142	1298.88671875	546.7574462890627	52.87795257568362	1299.941284179688	606.6902465820315	37.58534622192384	1321.310913085938	290.3782958984376	61.66514587402347	
